# xmcd
#
# Track frame offsets: 
#        150
#        15348
#        31288
#        49242
#        68796
#        88641
#        94687
#        116610
#        123077
#        143103
#        172606
#        193782
#        206051
#        217584
#        235634
#        247377
#
# Disc length: 3486 seconds
#
# Revision: 0
# Processed by: cddbd v1.5.2PL0 Copyright (c) Steve Scherf et al.
# Submitted via: ExactAudioCopyFreeDBPlugin 1.0
#
DISCID=d00d9c10
DTITLE=Gottfried Gfrerer - Scoop and Run
DYEAR=2009
DGENRE=Blues
TTITLE0=Man In Black
TTITLE1=Don't Touch My Preciuos Plastic Bag
TTITLE2=Western Town
TTITLE3=Waiting At The Shore
TTITLE4=Fretless In Ottakring
TTITLE5=Prelude
TTITLE6=Life Can So Hard Sometimes
TTITLE7=The Battle Of Brandywine
TTITLE8=The Getaway
TTITLE9=I'm Gonna Dream Me A Heaven Tonight
TTITLE10=Sailing To Freedom
TTITLE11=Lily Of The Valley
TTITLE12=The Railway Station Rail Hound
TTITLE13=Blooming Desert
TTITLE14=You'd Better Run
TTITLE15=Heaven Tonight  - Reprise
EXTD=
EXTT0=
EXTT1=
EXTT2=
EXTT3=
EXTT4=
EXTT5=
EXTT6=
EXTT7=
EXTT8=
EXTT9=
EXTT10=
EXTT11=
EXTT12=
EXTT13=
EXTT14=
EXTT15=
PLAYORDER=
